# xmcd
#
# Track frame offsets:
#	150
#	16643
#	41032
#	60507
#	81753
#	95196
#	113178
#	132171
#	151154
#	170819
#	191027
#	213964
#	235437
#	255813
#	272284
#	290593
#
# Disc length: 4436 seconds
#
# Revision: 0
# Processed by: cddbd v1.5.2PL0 Copyright (c) Steve Scherf et al.
# Submitted via: EasyCDDAExtractor 10.0.1.1
#
DISCID=d7115210
DTITLE=The Game - The doctor's advocate
DYEAR=2006
DGENRE=Rap
TTITLE0=Lookin' At You
TTITLE1=Da Shit
TTITLE2=It's Okay (One Blood)
TTITLE3=Compton (Feat. Will.I.Am)
TTITLE4=Remedy
TTITLE5=Let's Ride
TTITLE6=Too Much (Feat. Nate Dogg)
TTITLE7=Wouldn't Get Far (Feat. Kanye west)
TTITLE8=Scream On 'Em (Feat. Swizz Beat)
TTITLE9=One Night
TTITLE10=Doctor's Advocate (Feat. Busta Rhymes)
TTITLE11=Ol' English
TTITLE12=California Vacation (Feat. Snoop Dogg)
TTITLE13=Bang (Feat. Kurupt and Daz)
TTITLE14=Around The World (Feat. Jamie Foxx)
TTITLE15=Why You Hate The Game (Feat. Nore)
EXTD=
EXTT0=
EXTT1=
EXTT2=
EXTT3=
EXTT4=
EXTT5=
EXTT6=
EXTT7=
EXTT8=
EXTT9=
EXTT10=
EXTT11=
EXTT12=
EXTT13=
EXTT14=
EXTT15=
PLAYORDER=
